<?xml version="1.0" encoding="utf-8"?>
<!-- Generator: Adobe Illustrator 22.0.0, SVG Export Plug-In . SVG Version: 6.00 Build 0)  -->
<svg version="1.1" id="Capa_1" xmlns="http://www.w3.org/2000/svg" xmlns:xlink="http://www.w3.org/1999/xlink" x="0px" y="0px"
	 viewBox="0 0 66.3 78" style="enable-background:new 0 0 66.3 78;" xml:space="preserve">
<style type="text/css">
	.st0{fill:#8BB7F0;}
	.st1{fill:#E8D47B;}
	.st2{fill:#FFEEA3;}
	.st3{fill:#FFC49C;}
</style>
<g>
	<path class="st0" d="M2,76.8c0.4-17.8,20.7-21,20.9-21l21.3,0c0.1,0,20.4,3.3,20.8,21H2L2,76.8z"/>
	<path class="st1" d="M33.5,66.7c-6.3,0-9.2-6.1-9.5-6.9V45.2h19v14.6C42.7,60.7,39.8,66.7,33.5,66.7L33.5,66.7z"/>
	<path class="st2" d="M33.5,55.8c-1.3,0-2.6-0.5-3.6-1.4l-0.1-0.1l-0.1,0c-6.9-1.8-11.6-7.9-11.6-15V20.7c0-3.9,3.2-7.1,7.1-7.1
		h16.8c3.9,0,7.1,3.2,7.1,7.1v18.6c0,7.1-4.8,13.2-11.6,15l-0.1,0l-0.1,0.1C36.1,55.3,34.8,55.7,33.5,55.8L33.5,55.8z"/>
	<path class="st3" d="M50.3,53.7c-4.3,0-8.1-1.2-9.8-1.7c2.1-1.6,7.6-6.4,7.6-13.8v-9.9c0-5.3-5.8-8.7-6.1-8.9l-0.4-0.3l-0.2,0.5
		c0,0.1-3.9,7-13.6,8.3C23,28.6,18,31.8,18,37.4v0.8c0,7.5,6.1,12.5,8.5,14.2c-1.8,0.5-5.8,1.4-9.2,1.4c-5.8,0-8.6-2.9-9.4-3.8
		c1-1.3,4.7-6.2,4.7-9.8c0-1.9-0.4-4.1-0.9-6.4c-0.5-2.7-1.1-5.4-1.1-8.1c0-14.9,10.6-23.9,20.9-23.9c7.8,0,11,5.4,11.1,5.5l0.1,0.2
		h0.3c8.1,0,13.8,8.8,13.8,16.7c0,3.2-0.7,6.1-1.4,9c-0.6,2.5-1.1,4.8-1.1,7c0,4.5,4.8,8.6,6.5,9.8C59.4,51,55.2,53.7,50.3,53.7
		L50.3,53.7z"/>
	
		<image style="overflow:visible;" width="238" height="226" xlink:href="6857CBF0.jpg"  transform="matrix(0.24 0 0 0.24 6.5 0.25)">
	</image>
	
		<image style="overflow:visible;" width="275" height="100" xlink:href="6857CBF1.jpg"  transform="matrix(0.24 0 0 0.24 0.5 54.25)">
	</image>
</g>
</svg>
