<?xml version="1.0" encoding="utf-8"?>
<!-- Generator: Adobe Illustrator 22.0.0, SVG Export Plug-In . SVG Version: 6.00 Build 0)  -->
<svg version="1.1" id="Capa_1" xmlns="http://www.w3.org/2000/svg" xmlns:xlink="http://www.w3.org/1999/xlink" x="0px" y="0px"
	 viewBox="0 0 68 79.5" style="enable-background:new 0 0 68 79.5;" xml:space="preserve">
<style type="text/css">
	.st0{fill:#C2E8FF;}
	.st1{fill:#E8D47B;}
	.st2{fill:#FFEEA3;}
	.st3{fill:#FFC49C;}
</style>
<g>
	<path class="st0" d="M2.8,77.2c0.3-12.7,10.7-23,23.5-23h16c12.8,0,23.2,10.3,23.5,23H2.8L2.8,77.2z"/>
	<path class="st1" d="M34.3,61.2c-6.2,0-9.1-4.8-9.5-5.5V44.2h19v11.5C43.4,56.4,40.6,61.2,34.3,61.2L34.3,61.2z"/>
	<path class="st1" d="M48.6,38.6c-2.9,0-5.2-2.3-5.2-5.2s2.3-5.2,5.2-5.2c3.7,0,5.2,1,5.2,3.3C53.8,34.3,51.5,38.6,48.6,38.6
		L48.6,38.6z M20,38.6c-2.9,0-5.2-4.3-5.2-7.1c0-2.4,1.5-3.3,5.2-3.3c2.9,0,5.2,2.3,5.2,5.2C25.3,36.3,22.9,38.6,20,38.6L20,38.6z"
		/>
	<path class="st2" d="M34.3,53.2c-1.3,0-2.6-0.5-3.6-1.4l-0.1-0.1l-0.1,0c-6.9-1.8-11.6-7.9-11.6-15V18.1c0-3.9,3.2-7.1,7.1-7.1
		h16.7c3.9,0,7.1,3.2,7.1,7.1v18.6c0,7.1-4.8,13.2-11.6,15l-0.1,0L38,51.8C37,52.7,35.7,53.2,34.3,53.2L34.3,53.2z"/>
	<path class="st3" d="M49.8,35.2v-7.5c0-7-6.8-10.8-7.1-10.9l-0.4-0.2l-0.3,0.4c0,0.1-4.4,6-13.4,6c-6.5,0-9.8,2.3-9.8,6.8v5.5h-0.2
		c-0.7-1.5-3.8-8.7-3.8-14.9c0-10.8,7.4-18.1,18.5-18.1c8,0,10.4,5.5,10.5,5.7L44,8.2h0.3c3.5,0,9.5,2.4,9.5,11.5
		c0,5.6-3.2,13.8-3.8,15.5L49.8,35.2L49.8,35.2z"/>
	
		<image style="overflow:visible;" width="175" height="163" xlink:href="E038482.jpg"  transform="matrix(0.24 0 0 0.24 13.3333 0.6667)">
	</image>
	
		<image style="overflow:visible;" width="142" height="55" xlink:href="E038486.jpg"  transform="matrix(0.24 0 0 0.24 17.3334 39.6667)">
	</image>
	
		<image style="overflow:visible;" width="275" height="109" xlink:href="E038481.jpg"  transform="matrix(0.24 0 0 0.24 1.3333 52.6666)">
	</image>
</g>
</svg>
